<?xml version="1.0" ?><!DOCTYPE svg  PUBLIC '-//W3C//DTD SVG 1.1//EN'  'http://www.w3.org/Graphics/SVG/1.1/DTD/svg11.dtd'><svg enable-background="new 0 0 512 512" height="512px" id="Layer_1" version="1.1" viewBox="0 0 512 512" width="512px" xml:space="preserve" xmlns="http://www.w3.org/2000/svg" xmlns:xlink="http://www.w3.org/1999/xlink"><g><path d="M389.955,412.297c-0.063,0.813-0.563,1.547-1.297,1.797c-0.75,0.25-1.517-0.031-1.938-0.703   c-4.405-6.938-16.344-19.594-46.344-26.953c-30.047-7.391-46.405-1.655-53.483,2.438c-0.72,0.375-1.517,0.281-2.063-0.281   c-0.531-0.577-0.656-1.469-0.328-2.202c6.845-14.923,29.313-37.078,64.516-29.017C383.955,366.531,390.736,395.891,389.955,412.297   z M343.893,292.109c5.892-2.281,10.281-12.625,6.97-22.219c-4.142-11.984-22.267-20.845-42.392-12.609   c-1.953,10.563-4.844,20.563-8.203,30.203C309.689,291.125,332.924,296.406,343.893,292.109z M482.705,192.828   c-44.547,5.016-92.438-8.75-92.438-8.75s-48.719-9.969-85.922-35.016c1.875,11.547,3.609,24.047,5.234,37.391   c32.891,16.813,65.828,24.5,73.25,26.297c9.781,2.406,54.781,14.234,100.078,10.281c1.672,10.609,1.578,41-22.656,119.906   c-27.469,89.516-112.469,112.233-134.484,106.827c-16.063-3.952-54.866-36.78-68.305-89.999c-7.571,8.375-15.438,15.719-23.375,22   c18.547,54.202,58.743,90.344,84.696,96.719c39.063,9.578,137.672-25.297,168.844-126.922   C518.799,249.906,523.096,188.25,482.705,192.828z M431.596,293.156c-14.047-20.75-33.547-21.844-43.469-12.453   c-7.297,7-8.141,18.219-3.984,22.969c8.328,9.484,31,14.297,39.656,14.75C432.455,318.813,443.471,310.656,431.596,293.156z    M286.689,196.844c12.313,106.688-65.666,179.281-106.041,186.375c-40.391,7.141-138.492-34.469-163.445-138.938   C-7.749,139.828-8.022,77.391,32.791,84.641c45,7.984,94.961-1.281,94.961-1.281s50.109-8.344,89.664-31.234   C253.283,31.391,274.377,90.156,286.689,196.844z M69.658,203.844c8.406,3.328,35.719,8.688,47.727,3.609   c6.047-2.547,10.102-13.172,6.18-22.734c-5.281-12.891-27.273-21.688-49.609-8.828C55.072,186.781,61.306,200.469,69.658,203.844z    M224.798,266.203c0.031-0.891-0.523-1.734-1.375-2.047c-0.867-0.313-1.813-0.063-2.398,0.656   c-5.953,7.328-21.438,18.905-58.117,25.375c-36.68,6.438-55.734,0.938-63.844-3.906c-0.766-0.453-1.766-0.375-2.461,0.219   c-0.711,0.578-0.938,1.516-0.609,2.375c6.758,16.578,29.633,41.859,72.57,34.922C211.267,315.641,224.126,284.094,224.798,266.203z    M210.501,150.266c-25.391-4.469-43.039,11.313-43.602,25.234c-0.406,10.281,7.031,18.906,13.586,19.25   c13.023,0.672,36.859-13.672,43.617-19.703C230.814,169.031,231.962,154.047,210.501,150.266z" fill="#4D4D4D"/></g></svg>